# xmcd CD database file
#
# Track frame offsets:
#	150
#	27911
#	54501
#	78260
#	102097
#	145604
#	189693
#	217233
#
# Disc length: 3354 seconds
#
# Revision: 0
# Processed by: cddbd v1.5.2PL0 Copyright (c) Steve Scherf et al.
# Submitted via: CDex 1.70beta2
#
DISCID=6a0d1808
DTITLE=Amaravati - Magic Moments - Wind -& Klangspiele
DYEAR=2008
DGENRE=New Age
TTITLE0=Hope
TTITLE1=Light
TTITLE2=Beauty
TTITLE3=Wonders
TTITLE4=Whispers
TTITLE5=Breeze
TTITLE6=Time
TTITLE7=Landscapes
EXTD=YEAR: 2008
EXTT0=
EXTT1=
EXTT2=
EXTT3=
EXTT4=
EXTT5=
EXTT6=
EXTT7=
PLAYORDER=
